<?xml version="1.0" standalone="no"?>
<!DOCTYPE svg PUBLIC "-//W3C//DTD SVG 20010904//EN"
 "http://www.w3.org/TR/2001/REC-SVG-20010904/DTD/svg10.dtd">
<svg version="1.0" xmlns="http://www.w3.org/2000/svg"
 width="500.000000pt" height="150.000000pt" viewBox="0 0 500.000000 150.000000"
 preserveAspectRatio="xMidYMid meet">

<g transform="translate(0.000000,150.000000) scale(0.100000,-0.100000)"
fill="#000000" stroke="none">
<path d="M1931 996 c-7 -8 -11 -32 -9 -53 l3 -38 54 -3 c37 -2 57 1 62 10 13
19 11 72 -3 86 -17 17 -93 15 -107 -2z"/>
<path d="M4702 905 c2 -52 3 -95 2 -95 -1 0 -19 7 -40 16 -26 11 -58 15 -102
12 -57 -4 -68 -8 -93 -36 -39 -43 -52 -101 -46 -198 5 -88 22 -131 64 -164 24
-19 38 -21 94 -18 53 3 73 9 102 30 l35 27 6 -23 c5 -20 13 -25 51 -28 l45 -3
0 287 0 288 -61 0 -61 0 4 -95z m-24 -161 c21 -6 22 -11 22 -104 0 -94 -1 -97
-25 -108 -42 -19 -103 -15 -115 7 -17 33 -13 171 7 193 16 18 66 24 111 12z"/>
<path d="M182 709 l3 -282 60 0 60 0 3 127 3 126 99 0 99 0 3 -126 3 -126 58
-2 57 -1 0 283 0 282 -60 0 -60 0 0 -105 0 -105 -100 0 -100 0 0 105 0 105
-65 0 -65 0 2 -281z"/>
<path d="M2190 886 l0 -55 -37 -3 c-36 -3 -38 -5 -41 -40 l-3 -38 40 0 41 0 0
-136 0 -136 29 -29 c26 -26 36 -29 93 -29 99 0 105 4 99 53 -6 41 -7 42 -51
47 l-45 5 -3 113 -3 112 56 0 55 0 0 40 0 40 -55 0 -55 0 0 55 0 55 -60 0 -60
0 0 -54z"/>
<path d="M3042 859 c-183 -91 -190 -346 -11 -443 57 -32 136 -37 212 -14 63
19 132 92 152 162 9 31 14 60 11 64 -3 5 -38 10 -78 11 -40 1 -77 6 -84 11 -7
7 -11 0 -11 -22 0 -63 -87 -92 -131 -45 -49 52 -9 133 62 125 42 -5 46 -1 11
12 -20 7 -25 17 -25 42 0 18 -3 50 -6 70 -6 36 -6 37 32 41 26 2 18 4 -26 5
-49 2 -76 -3 -108 -19z m62 -53 c22 -76 19 -79 -13 -16 -16 30 -27 58 -24 63
11 18 23 3 37 -47z m-63 -166 c22 0 29 -5 29 -19 0 -18 54 -74 79 -82 6 -2 14
-34 18 -72 l6 -67 -34 0 c-55 0 -80 10 -74 29 7 24 -52 68 -68 51 -9 -8 -8
-10 3 -5 10 3 25 -4 39 -19 23 -24 23 -25 3 -23 -11 0 -19 4 -16 8 5 9 -14 22
-34 25 -8 2 -15 4 -16 6 -39 54 -48 76 -53 125 l-6 56 48 -6 c26 -4 61 -7 76
-7z m212 -222 c-14 -24 -32 -2 -47 57 -22 88 -20 90 18 15 19 -36 32 -68 29
-72z"/>
<path d="M813 821 c-69 -32 -103 -133 -84 -253 19 -113 70 -151 205 -151 144
0 196 46 204 183 7 128 -28 205 -106 228 -61 19 -170 15 -219 -7z m177 -91
c17 -17 20 -33 20 -98 0 -100 -14 -122 -75 -122 -51 0 -72 16 -81 66 -9 51 2
133 22 155 24 26 88 25 114 -1z"/>
<path d="M2550 834 c-66 -24 -86 -58 -77 -131 7 -62 35 -84 144 -114 93 -25
121 -42 102 -65 -9 -10 -40 -14 -125 -14 l-114 0 0 -39 c0 -32 4 -40 23 -45
38 -10 242 -7 276 5 39 14 61 54 61 112 0 80 -21 94 -233 154 -12 3 -17 12
-15 26 3 21 9 22 114 25 l112 3 7 35 c3 20 4 39 1 42 -8 7 -257 13 -276 6z"/>
<path d="M3294 832 c4 -7 2 -12 -3 -12 -19 0 -12 -26 14 -50 19 -18 27 -21 39
-11 12 10 17 4 30 -31 8 -24 17 -52 19 -63 4 -16 5 -14 6 6 2 37 -46 126 -82
151 -17 12 -27 17 -23 10z m12 -21 c-6 -9 12 -28 27 -30 10 -1 10 -15 0 -18
-14 -5 -46 34 -38 46 3 6 8 11 11 11 3 0 3 -4 0 -9z"/>
<path d="M4130 819 c-24 -11 -52 -27 -61 -35 -15 -13 -17 -12 -22 16 -6 29 -9
30 -57 30 l-50 0 2 -201 3 -201 58 -2 57 -1 0 138 0 138 36 15 c115 48 124 37
124 -150 l0 -141 57 1 58 2 3 153 c4 178 -5 222 -48 244 -40 21 -107 18 -160
-6z"/>
<path d="M1194 813 c3 -10 24 -90 47 -178 58 -226 45 -205 133 -205 47 0 77 5
84 13 5 6 19 73 32 147 12 74 25 143 29 154 4 11 17 -41 34 -139 15 -87 30
-162 33 -167 3 -4 41 -8 84 -8 l79 0 20 68 c11 37 35 127 55 200 l35 133 -62
-3 -62 -3 -26 -125 c-15 -69 -30 -142 -33 -164 -4 -21 -9 -36 -12 -34 -2 3
-16 72 -30 154 -15 82 -31 155 -36 162 -15 18 -132 16 -147 -2 -7 -8 -24 -82
-38 -165 -15 -83 -29 -148 -32 -146 -2 3 -17 66 -32 140 -41 206 -30 185 -100
185 -53 0 -60 -2 -55 -17z"/>
<path d="M1924 817 c-2 -7 -3 -97 -2 -201 l3 -189 60 0 60 0 3 202 2 201 -60
0 c-40 0 -62 -4 -66 -13z"/>
<path d="M3460 652 c0 -200 4 -215 68 -231 47 -13 107 -1 165 31 l46 26 3 -25
c3 -23 8 -26 51 -27 l47 -1 0 203 0 202 -60 0 -60 0 0 -141 0 -140 -36 -15
c-20 -8 -50 -14 -68 -12 l-31 3 -3 153 -3 152 -59 0 -60 0 0 -178z"/>
<path d="M3145 659 c-4 -5 -11 -6 -17 -3 -6 4 -8 2 -5 -4 4 -5 16 -8 27 -5 23
6 27 -16 8 -35 -10 -10 -7 -12 12 -9 14 2 25 6 24 8 -12 46 -36 70 -49 48z"/>
</g>
</svg>
